# xmcd
#
# Track frame offsets:
#	150
#	19945
#	40510
#	76187
#	97602
#	117861
#	138086
#	154169
#	171686
#	203857
#
# Disc length: 3050 seconds
#
# Revision: 0
# Processed by: cddbd v1.5.2PL0 Copyright (c) Steve Scherf et al.
# Submitted via: audiograbber 1.83.01
#
DISCID=730be80a
DTITLE=Billy Paul - 21 grandes sucesos - disco 2
DYEAR=1900
DGENRE=Blues
TTITLE0=I'm Gonna Make it this Time
TTITLE1=Brown Baby
TTITLE2=I'm Just a Prisoner
TTITLE3=War of the Gods
TTITLE4=It's Too Late
TTITLE5=Mrs. Robinson
TTITLE6=Somewhere
TTITLE7=Everyday People
TTITLE8=Let's Make a Baby
TTITLE9=July, July, July, July
EXTD=
EXTT0=
EXTT1=
EXTT2=
EXTT3=
EXTT4=
EXTT5=
EXTT6=
EXTT7=
EXTT8=
EXTT9=
PLAYORDER=
